PathFileType	4	(X/Y/Z)	D:\TRACE\spot_10-12-23\spot_arm_motion_2_5-v60.trc
DataRate	CameraRate	NumFrames	NumMarkers	Units	OrigDataRate	OrigDataStartFrame	OrigNumFrames
100.00	100.00	      32	9	mm	100.00	1751	      7000
Frame#	Time	front left toe			Front right toe			aft left toe			aft right toe			Arm			FL body			FR body			AL Body			AR Body			
		X1	Y1	Z1	X2	Y2	Z2	X3	Y3	Z3	X4	Y4	Z4	X5	Y5	Z5	X6	Y6	Z6	X7	Y7	Z7	X8	Y8	Z8	X9	Y9	Z9	

1751	17.500	-198.39328	22.91578	8.16998	299.93893	25.43658	21.65366	-197.78348	-19.26894	603.28357	276.17908	-23.40120	612.01617	26.33860	710.40442	-729.73950	-33.89052	535.99951	-51.71558	118.58958	537.08344	-51.11897	-42.57477	546.92920	832.11981	108.56419	541.83984	835.89368	
1752	17.510	-198.27274	23.05858	8.29164	300.09341	25.31646	21.95347	-197.54796	-19.93927	603.51746	276.43613	-24.28282	612.27600	27.07965	710.36700	-729.07391	-32.94908	536.06177	-51.34109	119.90170	537.13513	-50.49509	-41.81828	545.48004	832.58044	108.97563	540.46783	835.92468	
1753	17.520	-198.22108	23.19780	8.34730	300.14017	25.02696	22.44896	-197.48381	-20.67800	603.80298	276.26932	-25.06452	612.48810	27.71820	710.48785	-728.76324	-31.81024	536.10657	-50.88192	121.30584	536.73688	-49.34164	-40.90457	544.37183	832.84723	109.75933	539.33759	836.30115	
1754	17.530	-198.13037	23.30711	8.43772	300.02499	24.93689	22.73829	-197.49382	-21.45452	603.88922	276.36356	-25.87871	612.73444	28.49853	710.93713	-728.61047	-30.75166	536.07452	-50.44302	122.01403	536.76361	-49.19729	-40.34065	543.08630	833.25879	110.53066	538.35919	837.16168	
1755	17.540	-198.16621	23.39966	8.60478	300.11203	24.88654	22.76587	-197.39415	-22.20462	604.00421	276.36472	-26.89242	612.72986	28.99749	711.84125	-728.23010	-29.96714	536.00372	-50.24880	122.83186	537.27423	-49.27038	-39.44314	542.01019	833.38843	111.22799	537.10126	837.44952	
1756	17.550	-198.17085	23.49394	8.83336	300.09360	24.95574	22.98672	-197.31203	-22.72261	604.02301	276.39938	-27.67431	612.91254	29.53583	713.17596	-727.81201	-29.01034	535.90131	-49.85189	123.77349	537.20538	-49.06223	-38.29029	540.83832	834.24371	112.06895	535.92896	837.49408	
1757	17.560	-198.11946	23.68106	9.05782	300.04950	24.86204	23.09742	-197.35516	-23.53838	604.32977	276.52856	-28.42870	613.15643	30.24368	715.04590	-727.26984	-28.04183	535.74432	-49.36088	124.75269	536.99591	-48.23638	-38.05850	539.53467	834.19476	112.74471	534.95660	837.79749	
1758	17.570	-198.18472	23.75143	9.34065	299.99112	24.86861	23.28241	-197.53067	-24.11234	604.43158	276.66345	-28.97517	613.33057	30.86339	717.60614	-726.96521	-27.42419	535.80664	-49.14380	125.66595	537.08453	-47.77121	-36.59344	538.37250	834.90466	113.93046	533.79456	838.75818	
1759	17.580	-198.69966	24.08251	9.74636	299.76328	24.72649	23.56017	-197.77107	-24.55117	604.57397	276.32382	-29.89666	613.54993	31.46755	720.63812	-726.39496	-26.56021	535.93134	-48.63437	126.40053	537.21863	-47.13791	-36.10506	536.86224	834.90784	114.78962	532.53131	838.93597	
1760	17.590	-198.80768	24.12312	9.97546	299.54343	24.75438	23.81983	-197.95804	-25.12044	604.59473	276.02902	-30.87654	613.48883	32.22750	723.71625	-725.64618	-25.85616	536.15936	-48.22970	127.02868	537.80585	-47.45137	-34.93187	535.37927	835.57751	115.41193	530.86035	838.90503	
1761	17.600	-199.05293	24.20178	10.19303	299.29657	24.74814	24.09350	-198.22745	-25.85577	604.80640	275.77890	-31.56001	613.73627	33.15875	726.91370	-724.85132	-25.11391	536.45959	-47.90939	127.70876	538.19220	-47.09471	-34.55668	533.62317	835.57031	116.38566	529.32605	839.22174	
1762	17.610	-199.13060	24.17972	10.32407	298.85049	24.60695	24.00878	-198.52281	-26.43453	604.94720	275.61597	-32.12824	614.05054	33.74141	730.56372	-723.86914	-24.40037	536.90918	-47.66601	128.41292	538.85999	-46.61137	-33.53626	532.02856	836.35223	116.97562	527.76355	839.58716	
1763	17.620	-199.26727	24.27662	10.37871	298.63828	24.51663	24.21167	-198.63525	-26.82606	605.01385	275.10156	-32.95010	614.11316	34.30661	734.18762	-723.05127	-23.58108	537.46167	-47.20736	129.06030	539.46240	-46.44553	-32.76440	530.19104	836.76031	118.66973	526.54401	840.96094	
1764	17.630	-199.49316	24.38905	10.38302	298.35110	24.61489	24.43198	-198.87384	-27.40064	605.14227	274.84308	-33.68510	614.14563	34.87935	737.82532	-721.98218	-22.82947	538.03717	-46.90910	129.96411	540.09393	-45.94654	-32.60160	528.12714	836.67737	118.55849	524.37158	840.44214	
1765	17.640	-199.78476	24.46082	10.49465	298.06937	24.50847	24.54901	-199.19020	-27.70631	605.22473	274.44205	-34.18497	614.27930	35.29876	741.24286	-721.03400	-22.24641	538.88690	-46.64755	130.77202	540.97375	-45.56506	-31.73098	526.51666	837.30768	119.02277	522.68018	840.82275	
1766	17.650	-200.43506	24.68711	10.47437	297.80994	24.47123	24.73484	-199.58781	-28.11771	605.36163	274.28610	-34.61238	614.56061	35.90295	744.74762	-720.25415	-21.46840	539.56317	-46.21336	131.27750	541.90240	-45.05176	-31.29220	524.44940	837.45959	119.58911	521.02484	841.17023	
1767	17.660	-200.85249	24.93463	10.51809	297.79404	24.50798	24.97153	-199.91774	-28.40669	605.58466	274.08749	-35.00325	614.83331	36.81422	747.76520	-719.13818	-20.83271	540.32123	-46.02208	131.94072	543.08185	-44.99677	-30.96409	522.76538	837.79523	120.02711	519.20544	841.43158	
1768	17.670	-201.18411	25.00229	10.57155	297.52182	24.54644	25.18336	-200.34880	-28.87923	605.87024	273.60886	-35.42056	615.02625	37.15530	750.81165	-718.33289	-20.27514	541.15985	-45.73366	132.57314	544.05524	-44.68990	-30.69350	521.06396	838.01825	120.52620	517.54169	841.74500	
1769	17.680	-201.54654	25.07913	10.63852	296.65649	24.36222	25.20371	-200.88939	-29.17628	605.79858	272.95776	-35.98529	615.04242	37.38271	753.54578	-717.01740	-19.65776	541.94812	-45.35434	133.27521	544.79364	-44.06791	-30.50881	519.49500	838.12378	121.52053	516.30658	842.79041	
1770	17.690	-201.90837	25.19944	10.72719	296.38647	24.06266	25.47455	-201.38220	-29.42097	605.94232	272.28867	-36.59635	615.19580	38.01965	756.02545	-716.40186	-19.19535	542.61157	-45.07993	133.70563	545.50806	-43.80056	-29.93561	517.54242	838.62152	121.06099	514.51013	842.25018	
1771	17.700	-202.35890	25.27954	10.83110	295.76923	24.02298	25.53913	-201.67661	-29.57438	606.02539	272.24927	-36.64938	615.42871	38.51717	758.38770	-715.57428	-18.36246	543.12946	-44.46922	134.52051	546.44366	-43.23798	-29.17537	516.05518	838.94885	121.50040	513.45929	842.79285	
1772	17.710	-202.77315	25.35044	10.88907	295.36700	24.03461	25.53844	-202.00069	-29.96158	606.09802	271.70889	-37.28397	615.31268	39.07743	760.20459	-714.83801	-17.93055	543.77515	-44.19014	135.03786	547.23071	-43.12410	-29.25074	514.62317	839.01105	121.73129	511.80640	842.86469	
1773	17.720	-202.98834	25.35663	10.90471	295.06354	23.96111	25.44740	-202.51634	-30.17834	606.17383	271.19354	-37.63431	615.37799	39.53198	762.01599	-714.10358	-17.64033	544.51135	-44.10773	135.41266	547.86603	-42.50949	-29.01831	513.33447	839.34296	122.27759	510.71637	843.21198	
1774	17.730	-203.46068	25.50517	10.99269	295.19907	24.71700	25.31200	-202.90179	-30.42847	606.21088	270.76025	-37.86562	615.56055	40.25455	763.23883	-713.11896	-17.19104	545.19019	-43.96581	135.69838	548.77234	-42.43402	-28.80425	511.88931	839.20532	122.35984	509.31995	843.40717	
1775	17.740	-204.01523	25.59027	11.05550	294.81165	24.78477	25.70608	-203.47162	-30.54836	606.33313	270.14243	-38.13420	615.68469	40.24408	764.41968	-712.67535	-16.87089	545.61292	-43.59084	135.80054	549.44232	-42.13197	-28.45603	510.63763	839.70471	122.25842	508.18451	843.27948	
1776	17.750	-204.69666	25.63488	11.11678	294.24988	24.69677	25.86942	-203.98337	-30.58007	606.40686	269.61682	-38.34412	615.81689	40.40108	765.19049	-712.05499	-16.33990	546.20081	-43.25133	136.68112	550.11218	-41.71364	-28.25594	509.63431	839.85492	122.44843	507.07782	843.53192	
1777	17.760	-205.11040	25.56129	11.11092	294.28741	24.63951	25.94729	-204.62244	-30.50246	606.42053	269.13226	-38.39315	615.87415	40.77802	765.61877	-711.56970	-15.99271	546.85840	-42.85200	136.94843	550.78131	-41.51171	-27.89963	508.38535	840.01605	123.45850	506.49683	844.74066	
1778	17.770	-205.58727	25.60012	11.14332	293.35535	24.49875	25.93817	-205.17151	-30.51980	606.48627	268.63025	-38.42651	615.88470	40.91414	765.78302	-711.04572	-15.74128	547.34314	-42.52100	137.35542	551.03943	-41.19048	-27.76393	507.44174	840.22858	122.94353	505.39145	843.89160	
1779	17.780	-206.18735	25.70024	11.02726	293.10272	24.66294	25.76388	-205.48137	-30.81232	606.73853	267.90350	-38.60436	615.89862	41.02860	765.77789	-710.62335	-15.62516	547.82794	-42.34446	137.39278	551.89404	-40.69425	-27.72367	506.66171	840.39758	123.77108	504.68494	845.01801	
1780	17.790	-206.98325	25.83379	10.93515	292.20163	24.43704	25.91320	-206.12968	-30.74042	606.67908	267.18912	-38.75107	615.93237	40.97799	765.61316	-710.26776	-15.34172	548.48206	-42.28016	137.56767	552.62024	-40.55433	-27.54591	505.43307	840.37030	123.04329	503.60391	844.37823	
1781	17.800	-207.44186	25.84836	10.97753	292.33447	24.52053	25.92940	-206.90770	-30.59336	606.70789	266.83389	-38.77657	616.02832	40.95331	765.29132	-709.79608	-15.19764	548.92914	-42.11251	137.72583	552.86548	-40.56165	-27.44169	504.75314	840.85059	123.41840	502.95715	844.96069	
1782	17.810	-208.04155	25.96857	11.00498	291.04337	24.16548	25.99866	-207.59918	-30.38229	606.77283	266.17856	-38.82944	616.14496	41.10917	764.54407	-709.40308	-15.20912	549.38342	-41.90856	137.83246	553.63953	-40.15188	-27.56516	504.20206	840.89075	123.29453	502.32281	845.06805	
